<svg width="22" height="22" viewBox="0 0 22 22" fill="none" xmlns="http://www.w3.org/2000/svg">
<path d="M15 7V12C15 12.7957 15.3161 13.5587 15.8787 14.1213C16.4413 14.6839 17.2044 15 18 15C18.7957 15 19.5587 14.6839 20.1213 14.1213C20.6839 13.5587 21 12.7957 21 12V11C20.9999 8.74303 20.2362 6.55248 18.8333 4.78454C17.4303 3.01659 15.4706 1.77523 13.2726 1.2623C11.0747 0.749375 8.76794 0.995047 6.72736 1.95937C4.68677 2.9237 3.03241 4.54996 2.03327 6.57373C1.03413 8.5975 0.748975 10.8997 1.22418 13.1061C1.69938 15.3125 2.90699 17.2932 4.65064 18.7263C6.39429 20.1593 8.57144 20.9604 10.8281 20.9992C13.0847 21.038 15.2881 20.3122 17.08 18.94" stroke="#8491A5" stroke-width="2" stroke-linecap="round" stroke-linejoin="round"/>
</svg>
